<svg xmlns="http://www.w3.org/2000/svg" xmlns:xlink="http://www.w3.org/1999/xlink" width="24" height="24" viewBox="0 0 24 24">
  <defs>
    <clipPath id="clip-path">
      <rect id="fragance_1" data-name="fragance 1" width="24" height="24" transform="translate(28 4412)" fill="#fff"/>
    </clipPath>
  </defs>
  <g id="Mask_Group_131" data-name="Mask Group 131" transform="translate(-28 -4412)" clip-path="url(#clip-path)">
    <path id="__TEMP__SVG__" d="M23.991,26.759h-.157C5.7,25.717,3.128,10.417,2.768,5.749A2.768,2.768,0,0,1,5.315,2.768H10.4A1.845,1.845,0,0,1,12.116,3.93l1.4,3.451a1.845,1.845,0,0,1-.406,1.993l-1.965,1.984a8.646,8.646,0,0,0,6.994,7.013l2-1.984a1.845,1.845,0,0,1,2-.378L25.623,17.4a1.845,1.845,0,0,1,1.136,1.716v4.872a2.768,2.768,0,0,1-2.768,2.768ZM5.536,4.614a.923.923,0,0,0-.923.923V5.61c.425,5.463,3.146,18.381,19.323,19.3a.923.923,0,0,0,.979-.867V19.119l-3.479-1.394-2.648,2.63-.443-.056c-8.027-1.006-9.117-9.034-9.117-9.117l-.056-.443,2.621-2.648L10.408,4.614Z" transform="translate(25.241 4409.236)" fill="#fff"/>
  </g>
</svg>
