<svg xmlns="http://www.w3.org/2000/svg" xmlns:xlink="http://www.w3.org/1999/xlink" width="24" height="24" viewBox="0 0 24 24">
  <defs>
    <clipPath id="clip-path">
      <rect id="download" width="24" height="24" transform="translate(56 4808)" fill="#fff"/>
    </clipPath>
  </defs>
  <g id="Mask_Group_130" data-name="Mask Group 130" transform="translate(-56 -4808)" clip-path="url(#clip-path)">
    <path id="__TEMP__SVG__" d="M0,12.281a6.885,6.885,0,0,0,1.149,3.8,8.994,8.994,0,0,0,3.07,2.907q-.094.328-.211.844T3.68,21.446a7.455,7.455,0,0,0-.164,1.828q.047.727.469.726a6.067,6.067,0,0,0,2.836-.75,11.428,11.428,0,0,0,2.273-1.5A8.685,8.685,0,0,1,9.985,21,13.273,13.273,0,0,0,15,20.015a6.762,6.762,0,0,1-1.055-.563,3.075,3.075,0,0,0-.961-.468h-3a2.636,2.636,0,0,0-1.781.937,9.711,9.711,0,0,1-2.485,1.687L6,18l-.8-.7q-3.187-2.063-3.187-5.015A5.935,5.935,0,0,1,2.3,10.594a2.044,2.044,0,0,1-.258-.867,8.893,8.893,0,0,1-.071-1.055V7.594l.047-.609A7.466,7.466,0,0,0,0,12.281ZM14.015,0a10.737,10.737,0,0,0-7.1,2.437A7.387,7.387,0,0,0,3.985,8.3a6.607,6.607,0,0,0,2.906,5.531,11.624,11.624,0,0,0,7.125,2.156,11.1,11.1,0,0,1,.961,1.008,13.128,13.128,0,0,0,2.414,2.015A5.233,5.233,0,0,0,20.3,20.015q.328,0,.4-.515a3.88,3.88,0,0,0-.07-1.242q-.141-.727-.328-1.477t-.328-1.265L19.782,15a9.513,9.513,0,0,0,3.07-2.93A6.777,6.777,0,0,0,24,8.3a7.386,7.386,0,0,0-2.93-5.859A10.672,10.672,0,0,0,14.015,0ZM18.8,13.313l-1.313.8.515,1.5a6.952,6.952,0,0,1,.235.8,6.127,6.127,0,0,0,.281.891,17.95,17.95,0,0,1-2.437-2.109,2.921,2.921,0,0,0-1.969-1.172,10.212,10.212,0,0,1-5.649-1.523A4.744,4.744,0,0,1,6.094,8.3,5.363,5.363,0,0,1,8.367,3.843a8.844,8.844,0,0,1,5.648-1.828,8.847,8.847,0,0,1,5.649,1.828A5.492,5.492,0,0,1,21.984,8.3q0,2.953-3.187,5.015Z" transform="translate(56 4808)" fill="#fff"/>
  </g>
</svg>
