<svg xmlns="http://www.w3.org/2000/svg" xmlns:xlink="http://www.w3.org/1999/xlink" width="24" height="24" viewBox="0 0 24 24">
  <defs>
    <clipPath id="clip-path">
      <rect id="fragance_1" data-name="fragance 1" width="24" height="24" transform="translate(28 4412)" fill="#fff"/>
    </clipPath>
  </defs>
  <g id="Mask_Group_129" data-name="Mask Group 129" transform="translate(-28 -4412)" clip-path="url(#clip-path)">
    <g id="__TEMP__SVG__" transform="translate(25.6 4409.6)">
      <path id="Path_15" data-name="Path 15" d="M14.4,2.4A8.394,8.394,0,0,0,6,10.8c0,6.3,8.4,15.6,8.4,15.6s8.4-9.3,8.4-15.6A8.394,8.394,0,0,0,14.4,2.4Zm-6,8.4a6,6,0,1,1,12,0c0,3.456-3.456,8.628-6,11.856C11.9,19.452,8.4,14.22,8.4,10.8Z" fill="#fff"/>
      <path id="Path_16" data-name="Path 16" d="M17.4,10.8a3,3,0,1,1-3-3,3,3,0,0,1,3,3Z" fill="#fff"/>
    </g>
  </g>
</svg>
