<svg xmlns="http://www.w3.org/2000/svg" xmlns:xlink="http://www.w3.org/1999/xlink" width="20" height="20" viewBox="0 0 20 20">
  <defs>
    <clipPath id="clip-path">
      <rect id="Rectangle_842" data-name="Rectangle 842" width="20" height="20" transform="translate(950 3363)" fill="#fff" stroke="#707070" stroke-width="1"/>
    </clipPath>
  </defs>
  <g id="Mask_Group_159" data-name="Mask Group 159" transform="translate(-950 -3363)" clip-path="url(#clip-path)">
    <path id="__TEMP__SVG__" d="M10.443.017C11.534,0,12.618.01,13.7,0A5.189,5.189,0,0,0,15.16,3.477a5.885,5.885,0,0,0,3.533,1.491V8.323a8.859,8.859,0,0,1-3.5-.807,10.118,10.118,0,0,1-1.351-.775c-.006,2.435.01,4.867-.016,7.292A6.347,6.347,0,0,1,12.7,17.319a6.2,6.2,0,0,1-4.925,2.672,6.063,6.063,0,0,1-3.4-.856,6.276,6.276,0,0,1-3.041-4.759q-.033-.62-.01-1.24A6.28,6.28,0,0,1,8.6,7.566c.017,1.235-.032,2.467-.032,3.7a2.867,2.867,0,0,0-3.653,1.768A3.318,3.318,0,0,0,4.8,14.376a2.845,2.845,0,0,0,5.225,1.052,1.961,1.961,0,0,0,.342-.886c.082-1.491.049-2.975.059-4.466.007-3.36-.01-6.71.016-10.059Z" transform="translate(949.995 3363)" fill="#fff"/>
  </g>
</svg>
