<svg xmlns="http://www.w3.org/2000/svg" xmlns:xlink="http://www.w3.org/1999/xlink" width="20" height="20" viewBox="0 0 20 20">
  <defs>
    <clipPath id="clip-path">
      <rect id="Rectangle_838" data-name="Rectangle 838" width="20" height="20" transform="translate(950 3330)" fill="#fff" stroke="#707070" stroke-width="1"/>
    </clipPath>
  </defs>
  <g id="Mask_Group_158" data-name="Mask Group 158" transform="translate(-950 -3330)" clip-path="url(#clip-path)">
    <path id="__TEMP__SVG__" d="M20,1.924a8.308,8.308,0,0,1-2.05,2.119q.012.235.012.531a11.786,11.786,0,0,1-1.946,6.452A12.466,12.466,0,0,1,13.668,13.7a10.471,10.471,0,0,1-3.277,1.856,11.968,11.968,0,0,1-4.1.692A11.421,11.421,0,0,1,0,14.4a8.872,8.872,0,0,0,.979.057,8.045,8.045,0,0,0,5.1-1.758,3.981,3.981,0,0,1-2.383-.819,4.033,4.033,0,0,1-1.448-2.03A4.1,4.1,0,0,0,4.1,9.784,4,4,0,0,1,1.742,8.37,3.97,3.97,0,0,1,.806,5.762V5.712a4.049,4.049,0,0,0,1.859.513A4.076,4.076,0,0,1,1.332,4.763,4,4,0,0,1,.839,2.812,4.031,4.031,0,0,1,1.394.75,11.683,11.683,0,0,0,5.135,3.778,11.4,11.4,0,0,0,9.85,5.038,4.012,4.012,0,0,1,9.742,4.1a3.953,3.953,0,0,1,1.2-2.9,4.1,4.1,0,0,1,5.9.092,8.172,8.172,0,0,0,2.6-1,3.967,3.967,0,0,1-1.8,2.27A8.2,8.2,0,0,0,20,1.924Z" transform="translate(950 3331.877)" fill="#fff"/>
  </g>
</svg>
